<svg width="24" height="24" viewBox="0 0 24 24" fill="none" xmlns="http://www.w3.org/2000/svg">
<rect width="24" height="24" rx="12" fill="#4D4AFE"/>
<rect x="11.0031" y="13.0256" width="2.05128" height="2.04472" transform="rotate(-90 11.0031 13.0256)" fill="#D3DDFF"/>
<rect x="11.0031" y="4" width="2.04472" height="4.10256" fill="#D3DDFF"/>
<rect x="11.0031" y="15.8975" width="2.04472" height="4.10256" fill="#D3DDFF"/>
<rect x="20" y="10.9744" width="2.05128" height="4.08944" transform="rotate(90 20 10.9744)" fill="#D3DDFF"/>
<rect x="8.08944" y="10.9744" width="2.05128" height="4.08944" transform="rotate(90 8.08944 10.9744)" fill="#D3DDFF"/>
<rect x="8.9585" y="15.0769" width="2.05128" height="2.04472" transform="rotate(-90 8.9585 15.0769)" fill="#D3DDFF"/>
<rect x="8.9585" y="10.9744" width="2.05128" height="2.04472" transform="rotate(-90 8.9585 10.9744)" fill="#D3DDFF"/>
<rect x="13.0479" y="15.0769" width="2.05128" height="2.04472" transform="rotate(-90 13.0479 15.0769)" fill="#D3DDFF"/>
<rect x="13.0479" y="10.9744" width="2.05128" height="2.04472" transform="rotate(-90 13.0479 10.9744)" fill="#D3DDFF"/>
</svg>
