<svg width="32" height="32" viewBox="0 0 32 32" fill="none" xmlns="http://www.w3.org/2000/svg">
<path fill-rule="evenodd" clip-rule="evenodd" d="M16.5547 4.26887C16.2188 4.04494 15.7812 4.04494 15.4453 4.26887L4.4453 11.6022C4.1671 11.7877 4 12.0999 4 12.4343V26.8991C4 27.4514 4.44772 27.8991 5 27.8991H12C12.5523 27.8991 13 27.4514 13 26.8991V22.8991C13 22.3468 13.4477 21.8991 14 21.8991H18C18.5523 21.8991 19 22.3468 19 22.8991V26.8991C19 27.4514 19.4477 27.8991 20 27.8991H27C27.5523 27.8991 28 27.4514 28 26.8991V12.4343C28 12.0999 27.8329 11.7877 27.5547 11.6022L16.5547 4.26887Z" fill="#CDCED7"/>
</svg>
