<svg width="32" height="32" viewBox="0 0 32 32" fill="none" xmlns="http://www.w3.org/2000/svg">
<path fill-rule="evenodd" clip-rule="evenodd" d="M16.5547 4.3698C16.2188 4.14587 15.7812 4.14587 15.4453 4.3698L4.4453 11.7031C4.1671 11.8886 4 12.2008 4 12.5352V27C4 27.5523 4.44772 28 5 28H12C12.5523 28 13 27.5523 13 27V23C13 22.4477 13.4477 22 14 22H18C18.5523 22 19 22.4477 19 23V27C19 27.5523 19.4477 28 20 28H27C27.5523 28 28 27.5523 28 27V12.5352C28 12.2008 27.8329 11.8886 27.5547 11.7031L16.5547 4.3698Z" fill="#4D4AFE"/>
</svg>
