<svg width="32" height="32" viewBox="0 0 32 32" fill="none" xmlns="http://www.w3.org/2000/svg">
<path fill-rule="evenodd" clip-rule="evenodd" d="M4 5C4 4.44772 4.44772 4 5 4H27C27.5523 4 28 4.44772 28 5V23.5858C28 23.851 27.8946 24.1054 27.7071 24.2929L24.2929 27.7071C24.1054 27.8946 23.851 28 23.5858 28H5C4.44772 28 4 27.5523 4 27V5ZM8 10C8 9.44772 8.44772 9 9 9H23C23.5523 9 24 9.44772 24 10C24 10.5523 23.5523 11 23 11H9C8.44772 11 8 10.5523 8 10ZM24 16C24 15.4477 23.5523 15 23 15H9C8.44772 15 8 15.4477 8 16C8 16.5523 8.44772 17 9 17H23C23.5523 17 24 16.5523 24 16ZM8 22C8 21.4477 8.44771 21 9 21H19C19.5523 21 20 21.4477 20 22C20 22.5523 19.5523 23 19 23H9C8.44772 23 8 22.5523 8 22Z" fill="#4D4AFE"/>
</svg>
