<svg width="18" height="18" viewBox="0 0 18 18" fill="none" xmlns="http://www.w3.org/2000/svg">
<path d="M6.33333 9.66667L8.33333 11.6667L11.6667 7M17 9C17 10.1271 16.44 11.1244 15.584 11.7271C15.6762 12.254 15.6401 12.7954 15.4787 13.3054C15.3174 13.8154 15.0354 14.279 14.6569 14.6569C14.279 15.0354 13.8154 15.3173 13.3054 15.4787C12.7954 15.6401 12.254 15.6762 11.7271 15.584C11.4197 16.0218 11.0114 16.379 10.5367 16.6255C10.062 16.872 9.53489 17.0004 9 17C7.87289 17 6.87556 16.44 6.27289 15.584C5.74598 15.6761 5.20463 15.64 4.69466 15.4786C4.18468 15.3172 3.72108 15.0354 3.34311 14.6569C2.96456 14.279 2.68265 13.8154 2.52126 13.3054C2.35988 12.7954 2.32377 12.254 2.416 11.7271C1.97824 11.4197 1.621 11.0114 1.37451 10.5367C1.12803 10.062 0.999566 9.53489 1 9C1 7.87289 1.56 6.87556 2.416 6.27289C2.32377 5.74598 2.35988 5.20461 2.52126 4.69462C2.68265 4.18463 2.96456 3.72104 3.34311 3.34311C3.72108 2.96462 4.18468 2.68275 4.69466 2.52137C5.20463 2.35999 5.74598 2.32385 6.27289 2.416C6.58031 1.9783 6.98864 1.62109 7.46334 1.37461C7.93804 1.12814 8.46513 0.99964 9 1C10.1271 1 11.1244 1.56 11.7271 2.416C12.254 2.32385 12.7954 2.35999 13.3053 2.52137C13.8153 2.68275 14.2789 2.96462 14.6569 3.34311C15.0354 3.72108 15.3172 4.18468 15.4786 4.69465C15.64 5.20463 15.6761 5.74598 15.584 6.27289C16.0218 6.58025 16.379 6.98858 16.6255 7.46329C16.872 7.938 17.0004 8.46511 17 9Z" stroke="#CDCED7" stroke-width="1.5" stroke-linecap="round" stroke-linejoin="round"/>
</svg>
