<svg width="20" height="20" viewBox="0 0 20 20" fill="none" xmlns="http://www.w3.org/2000/svg">
<path opacity="0.5" d="M3.33335 8.06169C3.33335 4.53002 6.13168 1.66669 9.58335 1.66669C13.035 1.66669 15.8333 4.53002 15.8333 8.06169C15.8364 8.95728 15.6528 9.84369 15.2942 10.6644C14.9357 11.4851 14.41 12.2221 13.7508 12.8284C13.3258 13.2175 13.01 13.5067 12.7867 13.7167C12.6736 13.8229 12.5624 13.9313 12.4533 14.0417L12.4325 14.0642L12.4283 14.0692L12.4258 14.0717C12.2283 14.3217 12.1858 14.385 12.1608 14.4434C12.1358 14.5017 12.1167 14.5767 12.0667 14.8934C12.0475 15.0184 12.045 15.2317 12.045 15.8142V15.8392C12.045 16.18 12.045 16.4742 12.0242 16.715C12.0017 16.97 11.9517 17.2234 11.8175 17.4609C11.669 17.7251 11.4534 17.9456 11.1925 18.1C10.9608 18.2375 10.7133 18.2884 10.4642 18.3117C10.2283 18.3334 9.94085 18.3334 9.60751 18.3334H9.55918C9.22585 18.3334 8.93835 18.3334 8.70251 18.3117C8.45251 18.2884 8.20585 18.2367 7.97335 18.1C7.71277 17.9455 7.4975 17.725 7.34918 17.4609C7.21585 17.2234 7.16585 16.9709 7.14251 16.715C7.12085 16.4734 7.12085 16.18 7.12085 15.8392V15.8142C7.12085 15.2317 7.11918 15.0184 7.09918 14.8934C7.04918 14.5767 7.03168 14.5017 7.00585 14.4434C6.98085 14.385 6.93835 14.3209 6.74085 14.0717L6.73835 14.0692L6.73418 14.0642C6.61845 13.946 6.50037 13.8301 6.38001 13.7167C6.15668 13.5067 5.84085 13.2175 5.41585 12.8275C4.75677 12.2213 4.23121 11.4845 3.87266 10.6639C3.51411 9.84339 3.33044 8.95714 3.33335 8.06169Z" fill="#4340E1"/>
<path d="M8.58165 11.3542C8.54091 11.2825 8.4864 11.2196 8.42126 11.1691C8.35612 11.1186 8.28163 11.0815 8.20209 11.0599C8.12254 11.0383 8.03951 11.0327 7.95777 11.0433C7.87603 11.0539 7.79721 11.0806 7.72582 11.1218C7.65444 11.163 7.59192 11.218 7.54185 11.2834C7.49178 11.3489 7.45516 11.4236 7.43409 11.5033C7.41302 11.583 7.40793 11.6661 7.41909 11.7478C7.43026 11.8294 7.45747 11.9081 7.49915 11.9792C7.79784 12.4954 8.28553 12.8752 8.85915 13.0383V14.1667C8.85915 14.3324 8.925 14.4914 9.04221 14.6086C9.15942 14.7258 9.31839 14.7917 9.48415 14.7917C9.64991 14.7917 9.80888 14.7258 9.92609 14.6086C10.0433 14.4914 10.1092 14.3324 10.1092 14.1667V13.0392C10.6828 12.876 11.1705 12.4962 11.4692 11.98C11.5521 11.8365 11.5747 11.6658 11.5319 11.5056C11.4891 11.3455 11.3844 11.2088 11.2408 11.1258C11.0973 11.0429 10.9266 11.0203 10.7664 11.0631C10.6063 11.1059 10.4696 11.2106 10.3867 11.3542C10.2955 11.5129 10.164 11.6448 10.0055 11.7365C9.84708 11.8282 9.66723 11.8765 9.48415 11.8765C9.30107 11.8765 9.12123 11.8282 8.96277 11.7365C8.80432 11.6448 8.67285 11.5129 8.58165 11.3542ZM8.26165 16.3958H10.9033C10.9015 16.4676 10.8976 16.5393 10.8917 16.6108C10.8767 16.785 10.85 16.8483 10.8325 16.88C10.7829 16.9679 10.711 17.0412 10.6242 17.0925C10.5933 17.1108 10.5317 17.1375 10.3608 17.1533C10.1825 17.17 9.94749 17.17 9.58249 17.17C9.21832 17.17 8.98249 17.17 8.80415 17.1533C8.63415 17.1375 8.57165 17.1117 8.54082 17.0925C8.45391 17.0412 8.38205 16.9679 8.33249 16.88C8.31582 16.8483 8.28915 16.785 8.27415 16.6108C8.26792 16.539 8.26375 16.4679 8.26165 16.3958Z" fill="#4340E1"/>
</svg>
